<?xml version="1.0" standalone="no"?>
<!DOCTYPE svg PUBLIC "-//W3C//DTD SVG 20010904//EN"
 "http://www.w3.org/TR/2001/REC-SVG-20010904/DTD/svg10.dtd">
<svg version="1.0" xmlns="http://www.w3.org/2000/svg"
 width="96.000000pt" height="96.000000pt" viewBox="0 0 96.000000 96.000000"
 preserveAspectRatio="xMidYMid meet">
<metadata>
Created by potrace 1.14, written by Peter Selinger 2001-2017
</metadata>
<g transform="translate(0.000000,96.000000) scale(0.100000,-0.100000)"
fill="#000000" stroke="none">
<path d="M187 853 c-4 -3 -7 -147 -7 -320 l0 -313 -40 0 c-69 0 -103 -57 -60
-100 19 -19 33 -20 400 -20 367 0 381 1 400 20 43 43 9 100 -60 100 l-40 0 0
315 c0 273 -2 316 -15 321 -8 4 -22 1 -29 -5 -11 -9 -19 -9 -35 1 -17 10 -25
10 -41 0 -16 -10 -24 -10 -40 0 -16 10 -24 10 -40 0 -16 -10 -24 -10 -40 0
-16 10 -24 10 -40 0 -16 -10 -24 -10 -40 0 -16 10 -24 10 -40 0 -16 -10 -24
-10 -40 0 -16 10 -24 10 -40 0 -16 -10 -24 -10 -40 0 -16 10 -24 10 -41 0 -15
-10 -24 -11 -32 -3 -12 12 -30 14 -40 4z"/>
</g>
</svg>
